<?xml version="1.0" standalone="no"?><!DOCTYPE svg PUBLIC "-//W3C//DTD SVG 1.1//EN" "http://www.w3.org/Graphics/SVG/1.1/DTD/svg11.dtd"><svg t="1695710103214" class="icon" viewBox="0 0 1024 1024" version="1.1" xmlns="http://www.w3.org/2000/svg" p-id="5915" xmlns:xlink="http://www.w3.org/1999/xlink" width="200" height="200"><path d="M511.92 991.84l-3.84-1.92-476.16-237.54026667V271.46026667l480-239.4208 3.84 1.92 476.16 237.5008v480.91946666l-480 239.46026667zM90.3552 716.34346667l392.32746667 195.744V530.11733333l-392.32746667-191.264v377.48906667zM511.92 97.19466667L124.39253333 290.53866667l387.52746667 188.944L899.44746667 290.53866667 511.92 97.19466667z m421.5648 241.65973333l-392.32746667 191.264v381.968l392.32746667-195.744V338.85546667zM644.54933333 573.0752l197.14346667-96.15253333a29.59786667 29.59786667 0 0 1 39.1168 13.39946666 29.19786667 29.19786667 0 0 1-13.39946667 38.99733334l-197.184 96.15146666a29.39733333 29.39733333 0 0 1-39.07626666-13.35893333 29.19786667 29.19786667 0 0 1 13.39946666-39.0368z m-278.09706666 55.3152a29.19786667 29.19786667 0 0 1-12.75946667-2.91946667l-197.26293333-96.192a29.15733333 29.15733333 0 0 1-13.39946667-38.99733333 29.75786667 29.75786667 0 0 1 39.07733333-13.3984l197.22346667 96.15146667a29.19786667 29.19786667 0 0 1-12.87893333 55.35573333z" p-id="5916"></path></svg>