<?xml version="1.0" standalone="no"?><!DOCTYPE svg PUBLIC "-//W3C//DTD SVG 1.1//EN" "http://www.w3.org/Graphics/SVG/1.1/DTD/svg11.dtd"><svg t="1683796012670" class="icon" viewBox="0 0 1387 1024" version="1.1" xmlns="http://www.w3.org/2000/svg" p-id="1703" xmlns:xlink="http://www.w3.org/1999/xlink" width="270.8984375" height="200"><path d="M1024 0c99.03071 0 181.115871 72.670968 195.848258 167.539613A198.193548 198.193548 0 0 1 1387.354839 363.354839v462.451613a198.193548 198.193548 0 0 1-198.193549 198.193548H363.354839a198.226581 198.226581 0 0 1-195.848258-167.539613 198.193548 198.193548 0 0 1-167.374452-188.382968L0 660.645161V198.193548A198.193548 198.193548 0 0 1 190.76129 0.132129L198.193548 0h825.806452z m165.16129 297.290323H363.354839a66.064516 66.064516 0 0 0-66.064516 66.064516v462.451613a66.064516 66.064516 0 0 0 66.064516 66.064516h825.806451a66.064516 66.064516 0 0 0 66.064516-66.064516V363.354839a66.064516 66.064516 0 0 0-66.064516-66.064516z m-355.030709 128.231225l5.945806 0.396387c7.861677 1.123097 15.06271 4.459355 21.338839 9.744517 9.149935 7.696516 13.278968 19.15871 13.278968 33.197419 0 14.534194-4.459355 26.359742-14.336 33.924129-6.672516 5.12-13.939613 8.258065-21.603097 9.149935l-4.624516 0.264259H791.452903l-0.033032 234.000516-0.429419 4.921806a40.794839 40.794839 0 0 1-10.933678 21.768258c-8.258065 8.786581-20.248774 12.618323-35.179355 12.618323-15.095742 0-27.284645-4.129032-35.509677-13.444129-6.110968-6.936774-9.876645-14.666323-10.834581-22.924387l-0.231226-4.195097v-232.778323h-43.866838l-4.52542-0.396387a44.164129 44.164129 0 0 1-20.48-8.984774c-9.909677-7.564387-14.369032-19.356903-14.369032-33.924129 0-14.005677 4.129032-25.500903 13.278968-33.197419 6.540387-5.549419 14.104774-8.91871 22.296774-9.843613l4.987871-0.297291h178.506323z m287.644903-4.624516c14.930581 0 26.954323 3.831742 35.179355 12.618323 6.342194 6.804645 10.173935 14.765419 11.164903 23.518968l0.231226 4.426322-0.033033 287.942194-0.462451 5.12c-0.990968 6.342194-3.402323 12.288-7.201032 17.606193-6.969806 9.744516-18.663226 13.378065-34.254452 13.378065-10.107871 0-19.191742-3.270194-26.458839-9.711484-3.303226-2.972903-6.276129-5.945806-8.918709-8.91871l-3.633549-4.492387-116.075355-151.419871v135.234065l-0.429419 4.921806a40.794839 40.794839 0 0 1-10.933677 21.768258c-8.258065 8.786581-20.248774 12.618323-35.179355 12.618323-15.095742 0-27.284645-4.129032-35.509678-13.444129-6.110968-6.936774-9.876645-14.666323-10.83458-22.924387l-0.231226-4.195097 0.033032-286.951226 0.42942-5.285161c0.957935-6.474323 3.336258-12.552258 7.068903-17.969549 6.969806-10.074839 18.894452-13.840516 34.882064-13.840516 10.273032 0 19.422968 3.36929 26.458839 10.140903 2.972903 2.873806 5.714581 5.780645 8.225032 8.720517l3.534452 4.459354 116.372645 156.506839 0.066065-140.651355 0.429419-4.657548c1.32129-7.630452 4.954839-14.699355 10.570322-21.074581 8.225032-9.315097 20.413935-13.444129 35.509678-13.444129z m-628.471742 4.624516l8.588387 0.132129c17.176774 0.627613 32.107355 3.072 44.923871 7.465291 14.963613 5.186065 27.35071 12.155871 36.996129 21.041548 9.843613 9.116903 16.945548 19.819355 21.107613 32.04129 3.79871 11.297032 5.714581 22.957419 5.714581 34.915097 0 12.717419-1.882839 24.113548-5.714581 34.122323-3.864774 10.008774-9.249032 18.696258-16.152774 26.029419l-4.195097 4.129032-4.459355 3.79871-1.618581 1.123097c2.642581 1.651613 5.12 3.402323 7.498323 5.285161l3.468387 2.840774 5.020903 4.624516c8.192 8.258065 14.765419 18.365935 19.753291 30.323613 5.053935 12.188903 7.498323 26.260645 7.498322 42.182194 0 32.437677-10.24 58.698323-30.786064 77.625806-18.762323 17.209806-44.725677 26.227613-77.328516 27.515871l-8.291097 0.165162h-96.949678l-4.789677-0.264258c-10.041806-0.924903-18.663226-4.624516-25.071484-11.230968a37.194323 37.194323 0 0 1-10.636387-21.735226l-0.231226-4.096 0.066065-282.095484 0.429419-4.492387c1.32129-7.597419 5.053935-14.369032 10.801549-20.149677 6.606452-6.573419 15.194839-10.173935 25.104516-11.065807l5.086967-0.231226h84.166194zM1024 132.129032H198.193548a66.064516 66.064516 0 0 0-65.899354 61.109678L132.129032 198.193548v462.451613a66.064516 66.064516 0 0 0 33.032258 57.244904V363.354839a198.193548 198.193548 0 0 1 198.193549-198.193549h717.890064a66.064516 66.064516 0 0 0-52.323097-32.867096L1024 132.129032zM482.204903 637.060129h-21.404903v58.995613h28.804129c14.402065 0 24.939355-2.708645 31.843097-7.597419 5.186065-3.666581 7.795613-9.810581 7.597419-20.744258 0-7.333161-0.990968-12.816516-2.64258-16.417033a17.176774 17.176774 0 0 0-6.342194-7.46529 36.302452 36.302452 0 0 0-13.675355-4.954839 127.207226 127.207226 0 0 0-17.441032-1.684645l-6.738581-0.132129z m9.711484-126.711742h-31.116387v39.110194h31.116387c11.528258 0 18.200774-2.114065 20.843355-5.020904 3.468387-3.79871 5.186065-8.522323 5.186064-14.996645a21.140645 21.140645 0 0 0-1.288258-7.432258 14.864516 14.864516 0 0 0-3.600516-5.384258 19.885419 19.885419 0 0 0-7.267097-4.294193 34.882065 34.882065 0 0 0-9.711483-1.849807l-4.162065-0.132129z" p-id="1704"></path></svg>