<?xml version="1.0" standalone="no"?><!DOCTYPE svg PUBLIC "-//W3C//DTD SVG 1.1//EN" "http://www.w3.org/Graphics/SVG/1.1/DTD/svg11.dtd"><svg t="1684228351065" class="icon" viewBox="0 0 1024 1024" version="1.1" xmlns="http://www.w3.org/2000/svg" p-id="2644" xmlns:xlink="http://www.w3.org/1999/xlink" width="200" height="200"><path d="M90.680092 508.738854c19.566879 0 32.611465-13.044586 32.611465-32.611465V300.025478c0-13.044586 6.522293-26.089172 19.566879-26.089172L501.58455 65.22293c6.522293 0 19.566879 0 32.611465 6.522293l91.312102 52.178344c13.044586 6.522293 32.611465 0 39.133758-13.044586s6.522293-32.611465-6.522293-45.656051L566.80748 13.044586c-32.611465-19.566879-65.22293-19.566879-97.834395 0L110.246971 221.757962c-32.611465 13.044586-52.178344 45.656051-52.178344 84.789809v176.101911c0 13.044586 13.044586 26.089172 32.611465 26.089172z m619.617834 345.681528l-176.101911 104.356688c-13.044586 6.522293-26.089172 6.522293-32.611465 0l-358.726114-208.713376c-13.044586-6.522293-19.566879-19.566879-19.566879-32.611465V606.573248c0-19.566879-13.044586-32.611465-32.611465-32.611465s-32.611465 19.566879-32.611465 39.133758V717.452229c0 32.611465 19.566879 65.22293 45.656051 84.789809l358.726114 208.713376c13.044586 6.522293 32.611465 13.044586 45.656051 13.044586 19.566879 0 32.611465-6.522293 45.656051-13.044586l176.101911-104.356688c13.044586-6.522293 19.566879-26.089172 13.044586-45.656051 0-13.044586-19.566879-19.566879-32.611465-6.522293z m215.235669-632.66242L775.520856 136.968153c-13.044586-6.522293-32.611465-6.522293-45.656051 13.044586-6.522293 13.044586-6.522293 32.611465 13.044586 45.656051l150.012739 84.789809c6.522293 0 13.044586 13.044586 13.044586 26.089172v417.426751c0 13.044586-6.522293 26.089172-19.566879 26.089172l-52.178344 32.611465c-13.044586 6.522293-19.566879 26.089172-13.044586 45.656051 6.522293 13.044586 19.566879 13.044586 26.089172 13.044586 6.522293 0 13.044586 0 13.044586-6.522293l58.700637-32.611465c32.611465-19.566879 45.656051-52.178344 45.656051-84.789809V300.025478c6.522293-32.611465-13.044586-65.22293-39.133758-78.267516z" fill="" p-id="2645"></path><path d="M755.953977 352.203822l-221.757962-130.44586c-13.044586-6.522293-19.566879-6.522293-32.611465 0l-221.757961 130.44586c-13.044586 6.522293-19.566879 19.566879-19.566879 32.611465v260.891719c0 13.044586 6.522293 19.566879 13.044586 26.089172l221.757961 130.44586c6.522293 0 13.044586 6.522293 13.044586 6.522293 6.522293 0 13.044586 0 13.044586-6.522293l221.757962-130.44586c13.044586-6.522293 13.044586-19.566879 13.044586-26.089172v-260.891719c13.044586-13.044586 6.522293-26.089172 0-32.611465zM514.629136 286.980892l163.057325 91.312102L514.629136 476.127389 351.571811 384.815287 514.629136 286.980892zM318.960346 436.993631l163.057325 91.312101V717.452229L318.960346 626.140127V436.993631zM547.240601 717.452229V528.305732L710.297926 436.993631v182.624203L547.240601 717.452229z" fill="" p-id="2646"></path></svg>